<?xml version="1.0" standalone="no"?><!DOCTYPE svg PUBLIC "-//W3C//DTD SVG 1.1//EN" "http://www.w3.org/Graphics/SVG/1.1/DTD/svg11.dtd"><svg t="1663017000612" class="icon" viewBox="0 0 1024 1024" version="1.1" xmlns="http://www.w3.org/2000/svg" p-id="7142" xmlns:xlink="http://www.w3.org/1999/xlink" width="200" height="200"><path d="M1023.216289 841.246459v9.61262a268.243293 268.243293 0 0 1-1.9339 51.191468 145.725046 145.725046 0 0 1-48.0631 85.66039 153.233128 153.233128 0 0 1-65.126924 31.681831 126.897961 126.897961 0 0 1-40.441259 2.218297H175.769975a293.611509 293.611509 0 0 1-66.776427-3.640282 142.198522 142.198522 0 0 1-100.221518-91.348331A239.291674 239.291674 0 0 1 0.524516 846.081209V193.560629 132.472144a164.950286 164.950286 0 0 1 16.551908-56.253736A147.886463 147.886463 0 0 1 93.806746 8.930067a155.735822 155.735822 0 0 1 26.505805-6.768649L134.077368 0.739432h734.654446a108.070877 108.070877 0 0 1 34.127646 1.421986 152.607454 152.607454 0 0 1 65.980114 29.122257 146.180081 146.180081 0 0 1 51.191468 84.522802 254.819752 254.819752 0 0 1 2.787091 55.116147V841.417097zM942.618167 129.457535a65.126923 65.126923 0 0 0-22.751764-35.322113 53.011609 53.011609 0 0 0-50.395156-13.025385H138.798359l-5.687941 0.568794-13.821696 3.697162a64.956285 64.956285 0 0 0-31.169917 26.847081 120.29995 120.29995 0 0 0-8.816308 61.657279v661.735044a245.548409 245.548409 0 0 0 1.9339 57.391324 63.648059 63.648059 0 0 0 41.920124 44.934733 172.060212 172.060212 0 0 0 45.844804 2.843971h702.858857a54.149197 54.149197 0 0 0 23.661834-1.421986 73.033161 73.033161 0 0 0 29.520413-16.096872 98.515136 98.515136 0 0 0 19.623396-81.166917V174.16475a199.077931 199.077931 0 0 0-2.047658-44.707215z m-116.090874 694.781981a37.085375 37.085375 0 0 1-19.850914 20.362828h-0.511915a36.232184 36.232184 0 0 1-13.366661 2.730212H597.75831a36.516581 36.516581 0 0 1-31.681831-18.713326 38.052325 38.052325 0 0 1 0-37.369772 36.516581 36.516581 0 0 1 31.681831-18.713325h106.762651l-120.413709-123.030162a37.881686 37.881686 0 0 1-9.953897-36.345942 36.914736 36.914736 0 0 1 26.107649-26.676443 35.890907 35.890907 0 0 1 35.549631 10.181414l120.413708 123.030162v-109.151586a37.54041 37.54041 0 0 1 18.258291-32.364384 36.004666 36.004666 0 0 1 36.57346 0 37.54041 37.54041 0 0 1 18.25829 32.364384v199.419208a37.199133 37.199133 0 0 1-2.559573 13.594179zM402.775696 249.359329H296.297442l120.35683 123.087041a37.938566 37.938566 0 0 1 9.498861 36.118425 36.971616 36.971616 0 0 1-25.880131 26.448925 36.004666 36.004666 0 0 1-35.322113-9.6695L244.59406 302.2003v109.151586a37.654169 37.654169 0 0 1-18.31517 32.421263 36.004666 36.004666 0 0 1-36.57346 0 37.711048 37.711048 0 0 1-18.25829-32.421263V211.989557a36.857857 36.857857 0 0 1 2.616452-13.594178v-0.625674a36.914736 36.914736 0 0 1 19.907794-20.305949h0.568794a34.525801 34.525801 0 0 1 13.309781-2.673332h195.039494a36.459701 36.459701 0 0 1 31.681831 18.656446 38.166083 38.166083 0 0 1 0 37.426651 36.459701 36.459701 0 0 1-31.79559 18.485808z" p-id="7143"></path></svg>